<svg version="1.0" xmlns="http://www.w3.org/2000/svg" viewBox="0 0 650 650"><g fill="#FFF" stroke-width="0"><path d="M0 325c0 325 0 325 325 325s325 0 325-325S650 0 325 0 0 0 0 325zM276.9 94.6c8 4.7 15.3 8.9 16.1 9.4.8.5 8.4 4.9 16.8 9.9s16 9.1 16.8 9.1c.8 0 3.3-1.2 5.7-2.7 2.3-1.5 9.4-5.7 15.7-9.3 6.3-3.7 15.6-9.1 20.5-12 27-15.8 25.7-15.6 38.4-8 4.6 2.8 8.5 5 8.7 5 .1 0 3.8 2.2 8.2 4.9 4.4 2.7 8.3 5 8.8 5.2.9.4 9.8 5.7 16.2 9.7 2.1 1.2 5.7 3.3 8.2 4.7 2.5 1.4 6.3 3.6 8.5 5 2.2 1.3 6 3.5 8.5 4.9 2.5 1.3 5.6 3.6 7 5.1 2.5 2.7 2.5 2.7 2.8 44.6.3 41.9.3 41.9 4 44.3 2 1.3 15.9 9.5 30.7 18.1 34.7 20.3 34.6 20.2 37.3 25.5 2.2 4.4 2.2 4.9 2.2 44.6 0 22.1-.3 41.6-.6 43.3-1 4.9-7 10.5-17.9 16.7-5.5 3.1-11.3 6.5-13 7.5-1.6 1.1-3.7 2.2-4.5 2.6-.8.3-3.7 2.1-6.5 3.8-2.7 1.7-5.7 3.4-6.5 3.8-.8.4-2.8 1.6-4.5 2.6-1.6 1-7.3 4.4-12.5 7.5-9.5 5.7-9.5 5.7-10 46.4-.4 32.2-.8 41.3-1.9 43.4-1 2-7.5 6.4-21.9 15-11.3 6.8-21.5 12.7-22.7 13.3-2.9 1.4-26.4 15.4-29.9 17.8-1.6 1.1-4.8 2.2-7.1 2.5-3.6.4-5.3-.2-10.9-3.4-3.7-2.2-7.9-4.6-9.4-5.4-1.6-.9-4.1-2.6-5.7-3.8-1.5-1.2-3.1-2.2-3.5-2.2-.5 0-3.7-1.8-7.1-4-3.5-2.1-9.5-5.8-13.4-8-11.2-6.6-13.8-8.1-17.6-10.6-1.9-1.3-4-2.4-4.7-2.4-1.1 0-9.2 4.4-19.2 10.5-3 1.9-7.2 4.4-9.4 5.7-2.1 1.3-4.6 2.7-5.5 3.3-.9.5-3.4 2.1-5.6 3.4-2.2 1.3-5.6 3.4-7.5 4.6-1.9 1.2-7.5 4.6-12.4 7.5-12.3 7.2-13.5 7.1-33.1-4.6-17.2-10.3-27.1-16.2-43.6-25.8-19.1-11.1-17.4-5.8-17.7-53.6-.3-40.9-.3-40.9-3-42.8-1.5-1.1-4.3-2.9-6.2-4-4.6-2.6-21-12.3-43.4-25.5-10.9-6.4-19-11.9-20.5-13.9-2.6-3.3-2.6-3.3-2.6-49 0-44.8 0-45.7 2.1-48.5 1.1-1.5 3.8-4 6-5.4 3.2-2.2 37.1-22.3 59.7-35.4 5.2-3.1 5.2-3.1 5.7-45.2s.5-42.1 2.9-44.7c2-2.1 9.5-7.1 14.6-9.6 1.7-.9 25.8-15.1 29.5-17.5 3.6-2.3 15.9-9.4 22-12.8 1.9-1 6.4-3.6 10-5.8 9.5-5.7 10.7-5.4 27.9 4.7z"/><path d="M389 108.2c-5.6 3.2-26.7 15.7-36.2 21.5-4.8 2.9-9.1 5.3-9.4 5.3-1 0-6.4 4.1-6.4 4.8 0 .4 2.7 2.3 6.1 4.2 3.3 1.9 6.8 4 7.7 4.5 1 .6 5.1 3 9.2 5.3 4.1 2.4 9.5 5.6 12 7.3 2.5 1.6 5.2 3.2 6 3.6.8.4 4.4 2.4 7.9 4.5 3.6 2.1 6.9 3.8 7.3 3.8 1 0 1-65.7.1-66.3-.5-.2-2.4.4-4.3 1.5zM260 140c0 18.1.3 33 .7 33 .4 0 3.7-1.8 7.4-4s7.1-4 7.5-4c.4 0 1.5-.6 2.3-1.4.9-.8 3.5-2.5 5.8-3.7 14.4-8.2 33.2-19.5 33.3-19.9 0-.3-2.4-2-5.2-3.7-2.9-1.7-13.2-7.7-22.8-13.3-9.6-5.7-19.6-11.6-22.1-13.1-2.5-1.6-5.1-2.9-5.7-2.9-.9 0-1.2 8.6-1.2 33z"/><path d="M220.5 127.8c-11 6.5-22.7 13.4-26 15.3-6 3.5-6 3.5-6.5 46.6-.3 23.7-.7 43.3-1 43.5-.3.2-1.9 1.3-3.7 2.6-1.8 1.2-3.5 2.2-3.8 2.2-.3 0-3.7 1.9-7.5 4.2-7.2 4.4-11.3 6.9-19 11.3-2.5 1.5-6.1 3.6-8.1 4.8-5.8 3.5-15.1 8.8-18.9 10.8-1.9 1-5.3 3.1-7.5 4.7-4 2.8-4 2.8-4.3 34.5-.1 17.4.1 31.7.6 31.7.7 0 7.9-3.8 14-7.5 1-.6 5.5-3.2 10.2-6 4.7-2.7 9.7-5.6 11.1-6.5 1.4-.8 6.3-3.7 11-6.3 4.6-2.7 10.4-6.1 12.9-7.7 5.7-3.6 10.3-3.8 13.5-.5 2.5 2.4 2.5 2.4 2.5 41.5s0 39.1 2.3 38.4c1.2-.3 2.9-1.2 3.7-1.9.8-.7 2.9-2 4.5-2.9 1.7-.9 4.7-2.7 6.7-3.9 3.2-1.9 7.3-4.3 25.6-14.7 13.4-7.7 12.2-2.9 12.2-47.8 0-36.8.2-41 1.8-44.2 2-4.1-.7-2.4 51.2-32.4 10.2-5.9 18.8-11.3 19.2-11.9.9-1.3 1.1-63.7.3-63.7-.7 0-9 4.4-13.7 7.2-2 1.3-8.6 5.2-14.5 8.7-5.9 3.5-12.4 7.4-14.3 8.6-3.9 2.5-15.2 9-20.6 11.8-4 2.2-7.4 1.7-10.4-1.5-1.9-2.1-2-3.4-2-41.5 0-21.6-.3-39.3-.8-39.3-.4 0-9.7 5.3-20.7 11.8zM412 155.3c0 39.4 0 39.4-2.3 41.5-5 4.7-6.7 4.2-26.2-7.4-9.9-5.9-19.6-11.7-21.5-12.9-6.1-3.9-22.4-13.4-24.3-14.1-1.6-.6-1.7 1.2-1.5 31.6.3 32.3.3 32.3 19.3 43.6 18.3 10.9 27.2 16.1 32.5 19 8.6 4.8 16.6 10.3 18.4 12.7 2 2.8 2.1 4.1 2.4 44.2.3 41.3.3 41.3 10 47.1 5.3 3.1 10.8 6.4 12.2 7.2 2.6 1.7 10.6 6.1 15 8.4 1.4.7 2.7 1.5 3 1.9.3.3 2.5 1.7 4.9 3 2.4 1.3 5.3 2.9 6.5 3.6 2.1 1.2 2.1 1.2 2.4-36.9.2-38.1.2-38.1 2.8-41.5 3.4-4.5 7.5-4.5 14.6.1 2.9 1.8 7.1 4.3 9.3 5.5 2.2 1.2 4.7 2.5 5.5 3 3.5 2.2 29.1 17.2 35.8 21 4.1 2.2 7.8 3.9 8.3 3.5.5-.3.9-14 .9-31.3 0-24.8-.3-31.1-1.4-32-1.4-1.2-15-9.4-25.9-15.7-3.7-2.1-9.1-5.3-12-7.1-2.9-1.8-6.2-3.7-7.5-4.2-1.2-.6-3.5-1.9-5-3-1.5-1-7.1-4.4-12.4-7.6-9.8-5.7-9.8-5.7-10-48.8-.3-43-.3-43-3.3-44.7-5.4-3.1-14.9-8.7-23.5-13.8-14.5-8.6-26-15.2-26.5-15.2-.3 0-.5 17.7-.5 39.3z"/><path d="M316 248.6c-5.8 3.5-10.9 6.4-11.4 6.4s-1.7.6-2.5 1.4c-.9.8-2.7 2.1-4.1 2.8-6.7 3.6-24.1 14.1-24.5 14.8-.3.4 5.5 4.3 12.8 8.5 7.2 4.3 17.2 10.2 22 13.1 4.9 3 9.1 5.4 9.4 5.4.4 0 2.1 1.1 3.9 2.5 1.8 1.4 4 2.5 4.8 2.5.8 0 7.7-3.7 15.3-8.1 7.6-4.5 17.9-10.5 22.8-13.4 13.2-7.7 16.5-9.7 16.5-9.9 0-.4-9.4-6.3-15.5-9.7-3.3-1.8-8.1-4.8-10.7-6.6-2.6-1.8-5.1-3.3-5.6-3.3-.4 0-2.8-1.3-5.3-2.8-2.4-1.6-7.3-4.4-10.9-6.4-6.5-3.6-6.5-3.6-17 2.8zm-53 74.3c0 34.6-1.6 31.6 24 46.1.8.4 7.7 4.5 15.2 8.9 7.5 4.5 14.2 8.1 14.7 8.1.8 0 1.1-9.9 1.1-31.4 0-25.4-.3-31.6-1.4-32.5-1.7-1.4-52.4-31.1-53.1-31.1-.3 0-.5 14.4-.5 31.9zm117-26.3c-5.2 3.1-10.8 6.5-12.5 7.4-1.6 1-7 4.1-12 7-4.9 3-10.5 6.1-12.4 7.1-7.6 4-7.1 1.7-7.1 36.1 0 16.9.4 30.8.9 30.8.4 0 1.9-.8 3.2-1.9 1.3-1 2.9-2 3.4-2.2 1.4-.5 25-14.5 29.6-17.6 1.9-1.2 3.8-2.3 4.2-2.3.4 0 2-.8 3.5-1.8 1.5-1.1 4.4-3 6.4-4.3 3.8-2.4 3.8-2.4 3.8-33.2 0-16.9-.4-30.7-.8-30.7s-5 2.5-10.2 5.6zm-213 34.8c-1.9 1.3-12.6 7.6-23.7 14.1-11.2 6.4-20.3 12-20.3 12.5s3.7 2.9 8.3 5.5c14.3 8.1 24.4 14 25.8 15.1.8.6 4.4 2.8 8.2 4.8 6.7 3.8 6.7 3.8 6.7-25.3 0-16-.3-29.1-.8-29.1-.4 0-2.3 1.1-4.2 2.4zM482 357c0 31.1-1 29.1 11 21.5 6.6-4.2 28.5-17 30.3-17.8 1.1-.4 2.9-1.5 4.2-2.5 2.3-1.8 2.3-1.8-18.4-13.7-11.3-6.5-21.3-12.4-22.1-13-.8-.7-2.3-1.5-3.2-1.8-1.7-.6-1.8 1.1-1.8 27.3z"/><path d="M248.8 373.9c-10.5 5.9-40.4 23.4-45.6 26.7-3.3 2.2-3.3 2.2.1 4.3 1.9 1.1 3.9 2.1 4.6 2.1.6 0 1.1.4 1.1.8s1.9 1.8 4.3 3c2.3 1.3 8.1 4.6 13 7.5 4.8 2.8 14.2 8.4 21 12.4 14.1 8.2 16.1 10.1 16.1 14.8 0 4.2-2 6.5-9.3 10.7-3.1 1.8-6.5 3.8-7.6 4.4-1.1.6-3.9 2.2-6.2 3.5-2.2 1.3-6.7 4-10 5.9-3.2 1.9-7.4 4.4-9.4 5.5-15.7 8.8-20.7 11.9-20.3 12.7.3.4 2.2 1.7 4.2 2.8 2 1.1 5.1 2.9 6.7 3.9 6.6 4 31.3 18.5 35.5 20.9 2.5 1.3 5 2.9 5.7 3.4.8.6 9.8-4.3 28.2-15.4 14.9-9 27.8-16.8 28.8-17.3 1-.6 4-2.3 6.6-3.9 4.2-2.5 5.5-2.8 10.7-2.4 3.2.2 6.5 1 7.4 1.7.9.7 15.4 9.6 32.2 19.6 30.6 18.3 30.6 18.3 38.8 13.5 4.4-2.6 15.8-9.3 25.1-14.8 9.4-5.5 17.9-10.7 18.9-11.4 2-1.5 2.8-.9-20.9-14.3-3.4-1.9-19.2-11-35.3-20.2-2.3-1.4-4.7-3.3-5.2-4.3-1.6-3-1.2-7.8.8-9.8 2-2 23.6-15.2 24.8-15.2.4 0 1.5-.6 2.3-1.4.9-.8 4.3-2.9 7.6-4.7 3.3-1.7 6.7-3.7 7.5-4.4 1.3-1.1 8.1-4.9 16.3-9.2 4.2-2.2 6.7-.4-30.1-21.7-10.1-5.8-19-10.6-19.7-10.6-.8 0-12.3 6.4-25.7 14.3-40.3 23.7-42.1 24.7-45.6 24.7-3.6 0-3.8-.1-32.5-17.4-12-7.2-24.2-14.5-27.1-16.1-2.9-1.7-6-3.5-6.8-4.2-3.5-3-6.2-3.1-11-.4z"/><path d="M455.2 421.5c-4 2.5-9.5 5.7-12.2 7.2-2.7 1.6-10.2 5.9-16.6 9.7-11.6 6.9-11.6 6.9-2.2 12.4 5.1 3 15.9 9.2 24.1 13.8 14.7 8.3 14.7 8.3 14.7-19.7 0-15.3-.1-27.9-.2-27.8-.2 0-3.6 2-7.6 4.4zM190 444.9c0 18.3.3 26.1 1.1 26.1.6 0 3.6-1.5 6.7-3.4 3.2-1.9 12.9-7.7 21.8-12.8 16.1-9.4 16.1-9.4 9.5-13.3-3.6-2.1-13.2-7.9-21.3-12.7-8.1-4.8-15.4-9.1-16.2-9.4-1.4-.5-1.6 2.2-1.6 25.5z"/></g><path d="M249 90c-3.6 2.2-7.4 4.4-8.5 4.9-1.1.5-5.7 3.2-10.3 6-4.6 2.8-8.7 5.1-9.1 5.1-.5 0-2 .9-3.5 2.1-1.4 1.1-5.2 3.4-8.4 5.1-3.1 1.7-6.4 3.6-7.2 4.3-.8.7-3.3 2.2-5.5 3.4-2.2 1.1-5.8 3.2-8 4.6-2.2 1.3-6 3.5-8.5 4.9-2.5 1.3-5.6 3.6-7 5.1-2.5 2.7-2.5 2.7-3 44.8-.6 46.8 5.1 39-52.9 73.1-8.3 4.9-16.2 10.2-17.6 11.7-1.3 1.6-2.7 4.8-3 7.2-.3 2.3-.5 23.1-.3 46.2.3 42 .3 42 2.8 45.3 1.3 1.8 4.9 4.7 8 6.5 3 1.7 16.1 9.4 29 17 12.9 7.7 25.1 14.9 27 16 1.9 1 4.7 2.8 6.2 3.9 2.7 1.9 2.7 1.9 3 42.8.3 40.9.3 40.9 3.3 44.1 1.7 1.7 4.6 3.9 6.5 4.8 1.9.9 5.3 2.8 7.5 4.2 2.2 1.5 9.6 5.9 16.5 10 6.9 4 19.3 11.3 27.5 16.3 19.6 11.7 20.8 11.8 33.1 4.6 4.9-2.9 10.5-6.3 12.4-7.5 1.9-1.2 5.3-3.3 7.5-4.6 2.2-1.3 4.7-2.9 5.6-3.4.9-.6 3.4-2 5.5-3.3 2.2-1.3 6.2-3.7 9.1-5.5 11-6.8 18.2-10.7 19.6-10.7.8 0 2.5.8 3.8 1.9 1.3 1 4.2 2.8 6.4 4 2.2 1.2 7.6 4.4 12 7.1 4.4 2.7 10 6.1 12.5 7.5 5.3 3 11.7 6.8 26 15.5 9.1 5.5 12.3 5.4 22-1 2.5-1.6 6.1-3.8 8-4.8 1.9-1 6-3.4 9-5.2 3-1.8 7.1-4.2 9-5.2 21.3-12 44-26.4 45.1-28.6 1.1-2.1 1.5-11.7 1.9-43.4.5-40.7.5-40.7 5.3-43.8 2.6-1.6 5-3 5.3-3 .3 0 2.8-1.5 5.7-3.3 2.9-1.8 5.9-3.6 6.7-4 .8-.4 3.1-1.7 5.1-3 2-1.2 10.1-6 18-10.6 21-12.2 23.7-14 26.7-17.9 2.7-3.5 2.7-3.5 3-45.6.4-53.2 1.5-49.1-17.3-60.1-5.5-3.2-14.7-8.6-20.5-12-5.8-3.4-16.1-9.6-23-13.6-12.5-7.4-12.5-7.4-13-49.6-.5-42.1-.5-42.1-3-44.8-1.4-1.5-4.5-3.8-7-5.1-2.5-1.4-6.3-3.6-8.5-4.9-2.2-1.4-6-3.6-8.5-5s-6.1-3.5-8.2-4.7c-2-1.3-6.2-3.9-9.5-5.8-3.2-1.9-7.1-4.2-8.8-5.2-1.6-1-5-2.9-7.5-4.3s-6.3-3.6-8.5-5c-13.8-8.5-16.7-9.7-20.9-9.2-2.2.2-6.8 2-10.1 3.9-3.3 2-10 5.9-15 8.8-4.9 3-12.4 7.3-16.5 9.7-4.1 2.4-8.2 4.8-9 5.3-9.2 5.7-15.3 9-16.4 9-1.8 0-3.7-1-16.1-8.7-1.1-.7-4.9-2.9-8.5-5-7.8-4.5-6.3-3.7-24.8-14.6-17.5-10.3-18.7-10.5-28.2-4.7zm145 49.5c0 18.4-.3 33.5-.7 33.5-1.2 0-15.5-8.1-24-13.6-2.9-1.9-5.6-3.4-6-3.4-.3 0-2.9-1.5-5.7-3.3-6.7-4.2-7.9-4.9-15.4-9.3-7-4-7.1-3.7.8-8.1 1.9-1.1 10.7-6.3 19.5-11.5 26.5-15.8 30-17.8 30.8-17.8.4 0 .7 15.1.7 33.5zm-115.8-23c8.7 5.2 16.2 9.5 16.4 9.5.3 0 1.7.8 3.2 1.9 1.5 1 6.4 4 11 6.7 4.5 2.6 8.2 5.1 8.2 5.5 0 .3-1.3 1.2-3 1.9-1.6.7-3 1.6-3 2.1s-.5.9-1.1.9c-.5 0-7.8 4.1-16.2 9.1-8.4 5-15.9 9.4-16.7 9.9-.8.5-4.6 2.7-8.4 5-3.9 2.2-7.3 4-7.8 4-.4 0-.8-14.9-.8-33 0-23 .3-33 1.1-33 .6 0 8.3 4.3 17.1 9.5zM242 155.3c0 38.1.1 39.4 2 41.5 2.8 3 6.3 3.7 9.7 1.9 5.8-3 19.8-11.1 20.3-11.8.3-.3 1.6-1.2 3-1.9 2.4-1.2 18.8-10.9 26.8-15.8 4.7-2.8 13-7.2 13.7-7.2.3 0 .5 14.4.5 32 0 35.6 3.8 29.9-35 52.3-33.3 19.2-34.9 20.2-36.6 24.2-1.1 2.8-1.4 11.2-1.4 43.9 0 40.4 0 40.4-4.7 43.3-2.7 1.5-5.9 3.4-7.3 4-1.4.7-4.5 2.6-7 4.2-2.5 1.7-6.7 4.2-9.5 5.6-2.7 1.5-6.8 3.7-9 5-2.2 1.3-5.3 3.2-7 4.1-1.6.9-3.7 2.2-4.5 2.9-.8.7-2.5 1.6-3.7 1.9-2.3.7-2.3.7-2.3-38.4s0-39.1-2.5-41.5c-2.9-3-7.5-3.3-11.3-.8-3.9 2.6-5.7 3.7-15.1 9-4.7 2.6-9.6 5.5-11 6.3-1.4.9-6.4 3.8-11.1 6.5-4.7 2.8-9.2 5.4-10.2 6-6.1 3.7-13.3 7.5-14 7.5-.5 0-.7-14.3-.6-31.7.3-31.7.3-31.7 4.3-34.5 2.2-1.6 5.6-3.7 7.5-4.7 3.8-2 13.1-7.3 18.9-10.8 2-1.2 5.6-3.4 8.1-4.8 13.6-7.9 33.5-19.8 34-20.2.3-.3.7-19.9 1-43.6.5-43.1.5-43.1 6.5-46.6 3.3-1.9 15-8.8 26-15.3s20.3-11.8 20.7-11.8c.5 0 .8 17.7.8 39.3zm180.3-33.9c47.6 27.6 43.2 20.7 43.5 68.3.2 43.1.2 43.1 10 48.8 5.3 3.2 11.3 6.7 13.2 7.9 6.6 4.1 7.5 4.6 12.3 7.3 8.5 4.8 10.1 5.8 12.7 7.4 1.4.9 7 4.2 12.5 7.4 5.5 3.3 10.8 6.5 11.8 7.4 1.5 1.3 1.7 4.1 1.7 32.8 0 18.1-.4 31.3-.9 31.3-1 0-9.5-4.7-29.1-16.2-7.4-4.4-14.2-8.3-15-8.8-22.7-13.3-25.4-14.1-29.4-8.7-2 2.7-2.1 4.2-2.6 41.2-.5 38.4-.5 38.4-2.6 37.2-1.2-.7-4.1-2.3-6.5-3.6-2.4-1.3-4.6-2.7-4.9-3-.3-.4-1.6-1.2-3-1.9-1.4-.6-5-2.6-8.1-4.4-3.1-1.8-9.2-5.3-13.5-7.8-16.6-9.3-14.8-3.4-15.4-50.5-.5-39.9-.6-41.5-2.6-44.2-1.6-2.2-21.1-14.7-35.4-22.6-1.4-.7-9.8-5.7-18.7-11.1-16.3-9.7-16.3-9.7-16.3-41.6 0-17.6.2-32 .5-32 1.1 0 8 3.8 17 9.4 5 3 12.4 7.5 16.5 9.9 4.1 2.4 13 7.6 19.7 11.6 13.5 8 16.3 8.5 20.3 3.4 1.9-2.5 2-4 2-41.4 0-21.4.2-38.9.6-38.9.3 0 4.6 2.4 9.7 5.4zm-84.4 127.1c6 3.6 11.2 6.5 11.5 6.5.4 0 2.8 1.5 5.4 3.3 2.6 1.8 8.5 5.4 13.2 8 15.6 8.8 17.2 6-13.4 24C340 299 327.3 306 326.3 306c-.9 0-2.4-.6-3.2-1.3-.9-.8-8.3-5.3-16.6-10.1-8.2-4.8-15.7-9.1-16.5-9.6-.8-.6-5-3.1-9.3-5.6-4.2-2.5-7.5-4.9-7.2-5.3.4-.8 23.7-14.8 33.4-20.2 2.5-1.5 8-4.7 12.1-7.3 4.1-2.5 7.5-4.6 7.6-4.6.1 0 5.2 2.9 11.3 6.5zm-69.4 45c2.2 1.3 6.3 3.7 9 5.3 20.8 12.1 37.8 22.2 39 23.2 1.3 1.1 1.5 6.1 1.5 32.6 0 21-.3 31.4-1 31.4-.8 0-15.1-8.1-30-17-.8-.5-3.5-2.1-6-3.6s-5.8-3.5-7.5-4.4c-11.5-6.4-10.5-2.7-10.5-38.1 0-17.5.3-31.9.8-31.9.4.1 2.5 1.2 4.7 2.5zM391 321.7c0 30.8 0 30.8-3.8 33.2-2 1.3-4.9 3.2-6.4 4.3-1.5 1-3.1 1.8-3.5 1.8-.4 0-2.3 1.1-4.2 2.4-3.4 2.2-24.4 14.8-28.6 17-1.1.6-3.3 2-4.8 3s-3 1.7-3.2 1.4c-.3-.2-.5-14.3-.5-31.3-.1-34.5-.8-31.1 7.5-35.6 1.7-.8 7.1-3.9 12-6.9 5-2.9 10.4-6 12-7 1.7-.9 7.3-4.3 12.5-7.4 5.2-3.1 9.8-5.6 10.2-5.6.4 0 .8 13.8.8 30.7zm-219 36.4c0 29.1 0 29.1-6.7 25.3-3.8-2-7.4-4.2-8.2-4.8-1.4-1.1-11.5-7-25.8-15.1-4.6-2.6-8.3-5-8.3-5.5 0-.6 23.6-14.9 40-24.3 1.9-1 4.4-2.6 5.5-3.3 1.1-.8 2.3-1.4 2.7-1.4.5 0 .8 13.1.8 29.1zm314.1-27.3c1.3 1 11.7 7.2 23 13.7 20.7 11.9 20.7 11.9 18.4 13.7-1.3 1-3.1 2.1-4.2 2.5-1.8.8-23.7 13.6-30.3 17.8-12 7.6-11 9.6-11-21.5 0-15.4.4-28 .9-28 .4 0 1.9.8 3.2 1.8zm-227.9 42.6c1.9 1.2 5.9 3.7 8.9 5.3 3 1.7 15.8 9.3 28.4 16.9 12.7 7.7 24.3 14.5 25.8 15.2 6.1 2.7 5.6 2.9 36.2-15.1 6.6-3.9 18.3-10.8 25.9-15.4 13.9-8.3 13.9-8.3 17-6.4 1.7 1 10.3 6 19.1 11.1 25.9 14.9 29.4 17 30 17.9.3.5-.7 1.6-2.2 2.4-8.2 4.3-15 8.1-16.3 9.2-.8.7-4.2 2.7-7.5 4.4-3.3 1.8-6.7 3.9-7.6 4.7-.8.8-1.9 1.4-2.3 1.4-1.4 0-24.1 14.1-25.3 15.8-1.9 2.3-1.6 7.7.5 9.9 1.8 2.1 6.9 5.2 25.1 15.4 13.5 7.6 17.3 9.8 22.6 12.9 2.2 1.3 6.4 3.7 9.3 5.3 2.8 1.5 5.2 3.2 5.2 3.6 0 .4-1.2 1.3-2.7 2-2.2 1-40.2 23.2-48.9 28.7-2 1.2-4.7-.2-31.5-16.2-16.2-9.7-30.7-18.5-32.4-19.7-1.9-1.4-5-2.3-8.6-2.5-4.9-.4-6.4 0-10.5 2.4-2.7 1.6-5.7 3.3-6.7 3.9-.9.5-13.9 8.3-28.6 17.2-29.7 17.9-26.6 16.9-34.9 11.8-.9-.6-5.5-3.3-10.2-6-4.7-2.8-9.2-5.5-10.2-6-.9-.6-4.9-2.9-9-5.3-12.8-7.6-14.9-8.9-15.9-9.9-.6-.6 2.1-2.6 7.3-5.6 4.6-2.6 12.6-7.2 17.8-10.3 5.2-3.1 11.3-6.7 13.5-7.9 2.2-1.2 7.1-4.1 10.9-6.4 3.7-2.2 7.1-4.1 7.5-4.1 2.1 0 5.5-5.3 5.5-8.5 0-4.6-1.7-6.3-14.2-13.5-5.9-3.4-11.8-7-13.2-7.9-1.4-1-5.2-3.2-8.5-5.1-3.3-1.8-10.9-6.2-16.8-9.8-12.7-7.5-14.1-5.2 12.8-20.7 9.4-5.4 19.9-11.5 23.4-13.7 3.6-2.1 6.8-3.8 7.1-3.8.4 0 2.3 1.1 4.2 2.4zM463 444.9c0 28 0 28-14.7 19.7-8.2-4.6-19-10.8-24.1-13.8-9.4-5.5-9.4-5.5 2.2-12.4 6.4-3.8 13.9-8.1 16.6-9.7 2.7-1.5 8.2-4.7 12.2-7.2 4-2.4 7.4-4.4 7.6-4.4.1-.1.2 12.5.2 27.8zm-254-15.5c9.6 5.7 19.6 11.7 22.1 13.3 4.6 2.8 4.6 2.8-10.9 11.8-8.6 5-18.4 10.7-21.8 12.7-3.5 2.1-6.8 3.8-7.3 3.8-.8 0-1.1-8.4-1.1-26 0-14.3.3-26 .8-26 .4 0 8.6 4.7 18.2 10.4z"/></svg>